0
SECTION
2
HEADER
9
$INSUNITS
70
4
0
ENDSEC
0
SECTION
2
TABLES
0
TABLE
2
LTYPE
0
LTYPE
72
65
70
64
2
CONTINUOUS
3
______
73
0
40
0
0
ENDTAB
0
TABLE
2
LAYER
0
ENDTAB
0
ENDSEC
0
SECTION
2
ENTITIES
0
LINE
8
0
10
127.9492977
20
-28.5104005
11
90.5981118
21
-36.1721822
0
LINE
8
0
10
89
20
-38.1313876
11
89
21
-108.0354508
0
LINE
8
0
10
90.3962166
20
-109.9421352
11
97.9816827
21
-112.3441995
0
LINE
8
0
10
98.0182044
20
-112.356152
11
137.5942696
21
-125.7304755
0
LINE
8
0
10
138.015858
20
-125.8237483
11
220.4108959
21
-134.8887032
0
LINE
8
0
10
222.6055486
20
-133.2100161
11
227.9432696
21
-99.1123967
0
LINE
8
0
10
227.9244333
20
-98.3910581
11
224.2800338
21
-81.0801605
0
LINE
8
0
10
222.6601418
20
-79.5208137
11
206.6627924
21
-76.784425
0
LINE
8
0
10
205
20
-74.8130572
11
205
21
-32.7330584
0
LINE
8
0
10
203.2845748
20
-30.7534076
11
157.2924633
21
-24.1420416
0
LINE
8
0
10
156.7078737
20
-24.1443226
11
128.0511711
21
-28.4922361
0
ARC
8
0
10
91
20
-38.1313876
40
2
50
101.592173
51
180
0
ARC
8
0
10
91
20
-108.0354508
40
2
50
180
51
252.428741
0
ARC
8
0
10
97.3778992
20
-114.250884
40
2
50
71.3278465
51
72.428741
0
ARC
8
0
10
138.2345748
20
-123.8357435
40
2
50
251.3278465
51
263.7216686
0
ARC
8
0
10
220.6296127
20
-132.9006985
40
2
50
263.7216686
51
351.1029913
0
ARC
8
0
10
225.9673337
20
-98.8030791
40
2
50
351.1029913
51
11.8886589
0
ARC
8
0
10
222.3229342
20
-81.4921815
40
2
50
11.8886589
51
80.293349
0
ARC
8
0
10
207
20
-74.8130572
40
2
50
180
51
260.293349
0
ARC
8
0
10
203
20
-32.7330584
40
2
50
0
51
81.8197702
0
ARC
8
0
10
157.0078885
20
-26.1216924
40
2
50
81.8197702
51
98.6273552
0
ARC
8
0
10
128.3511859
20
-30.4696059
40
2
50
98.6273552
51
101.592173
0
LINE
8
0
10
93.1
20
-106.9
11
106.9
21
-106.9
0
LINE
8
0
10
106.9
20
-106.9
11
106.9
21
-93.1
0
LINE
8
0
10
106.9
20
-93.1
11
93.1
21
-93.1
0
LINE
8
0
10
93.1
20
-93.1
11
93.1
21
-106.9
0
LINE
8
0
10
93.1
20
-88.9
11
106.9
21
-88.9
0
LINE
8
0
10
106.9
20
-88.9
11
106.9
21
-75.1
0
LINE
8
0
10
106.9
20
-75.1
11
93.1
21
-75.1
0
LINE
8
0
10
93.1
20
-75.1
11
93.1
21
-88.9
0
LINE
8
0
10
93.1
20
-70.9
11
106.9
21
-70.9
0
LINE
8
0
10
106.9
20
-70.9
11
106.9
21
-57.1
0
LINE
8
0
10
106.9
20
-57.1
11
93.1
21
-57.1
0
LINE
8
0
10
93.1
20
-57.1
11
93.1
21
-70.9
0
LINE
8
0
10
93.1
20
-52.9
11
106.9
21
-52.9
0
LINE
8
0
10
106.9
20
-52.9
11
106.9
21
-39.1
0
LINE
8
0
10
106.9
20
-39.1
11
93.1
21
-39.1
0
LINE
8
0
10
93.1
20
-39.1
11
93.1
21
-52.9
0
LINE
8
0
10
112.1
20
-104.9
11
125.9
21
-104.9
0
LINE
8
0
10
125.9
20
-104.9
11
125.9
21
-91.1
0
LINE
8
0
10
125.9
20
-91.1
11
112.1
21
-91.1
0
LINE
8
0
10
112.1
20
-91.1
11
112.1
21
-104.9
0
LINE
8
0
10
112.1
20
-86.9
11
125.9
21
-86.9
0
LINE
8
0
10
125.9
20
-86.9
11
125.9
21
-73.1
0
LINE
8
0
10
125.9
20
-73.1
11
112.1
21
-73.1
0
LINE
8
0
10
112.1
20
-73.1
11
112.1
21
-86.9
0
LINE
8
0
10
112.1
20
-68.9
11
125.9
21
-68.9
0
LINE
8
0
10
125.9
20
-68.9
11
125.9
21
-55.1
0
LINE
8
0
10
125.9
20
-55.1
11
112.1
21
-55.1
0
LINE
8
0
10
112.1
20
-55.1
11
112.1
21
-68.9
0
LINE
8
0
10
112.1
20
-50.9
11
125.9
21
-50.9
0
LINE
8
0
10
125.9
20
-50.9
11
125.9
21
-37.1
0
LINE
8
0
10
125.9
20
-37.1
11
112.1
21
-37.1
0
LINE
8
0
10
112.1
20
-37.1
11
112.1
21
-50.9
0
LINE
8
0
10
131.1
20
-98.9
11
144.9
21
-98.9
0
LINE
8
0
10
144.9
20
-98.9
11
144.9
21
-85.1
0
LINE
8
0
10
144.9
20
-85.1
11
131.1
21
-85.1
0
LINE
8
0
10
131.1
20
-85.1
11
131.1
21
-98.9
0
LINE
8
0
10
131.1
20
-80.9
11
144.9
21
-80.9
0
LINE
8
0
10
144.9
20
-80.9
11
144.9
21
-67.1
0
LINE
8
0
10
144.9
20
-67.1
11
131.1
21
-67.1
0
LINE
8
0
10
131.1
20
-67.1
11
131.1
21
-80.9
0
LINE
8
0
10
131.1
20
-62.9
11
144.9
21
-62.9
0
LINE
8
0
10
144.9
20
-62.9
11
144.9
21
-49.1
0
LINE
8
0
10
144.9
20
-49.1
11
131.1
21
-49.1
0
LINE
8
0
10
131.1
20
-49.1
11
131.1
21
-62.9
0
LINE
8
0
10
131.1
20
-44.9
11
144.9
21
-44.9
0
LINE
8
0
10
144.9
20
-44.9
11
144.9
21
-31.1
0
LINE
8
0
10
144.9
20
-31.1
11
131.1
21
-31.1
0
LINE
8
0
10
131.1
20
-31.1
11
131.1
21
-44.9
0
LINE
8
0
10
150.1
20
-96.4
11
163.9
21
-96.4
0
LINE
8
0
10
163.9
20
-96.4
11
163.9
21
-82.6
0
LINE
8
0
10
163.9
20
-82.6
11
150.1
21
-82.6
0
LINE
8
0
10
150.1
20
-82.6
11
150.1
21
-96.4
0
LINE
8
0
10
150.1
20
-78.4
11
163.9
21
-78.4
0
LINE
8
0
10
163.9
20
-78.4
11
163.9
21
-64.6
0
LINE
8
0
10
163.9
20
-64.6
11
150.1
21
-64.6
0
LINE
8
0
10
150.1
20
-64.6
11
150.1
21
-78.4
0
LINE
8
0
10
150.1
20
-60.4
11
163.9
21
-60.4
0
LINE
8
0
10
163.9
20
-60.4
11
163.9
21
-46.6
0
LINE
8
0
10
163.9
20
-46.6
11
150.1
21
-46.6
0
LINE
8
0
10
150.1
20
-46.6
11
150.1
21
-60.4
0
LINE
8
0
10
150.1
20
-42.4
11
163.9
21
-42.4
0
LINE
8
0
10
163.9
20
-42.4
11
163.9
21
-28.6
0
LINE
8
0
10
163.9
20
-28.6
11
150.1
21
-28.6
0
LINE
8
0
10
150.1
20
-28.6
11
150.1
21
-42.4
0
LINE
8
0
10
169.1
20
-98.9
11
182.9
21
-98.9
0
LINE
8
0
10
182.9
20
-98.9
11
182.9
21
-85.1
0
LINE
8
0
10
182.9
20
-85.1
11
169.1
21
-85.1
0
LINE
8
0
10
169.1
20
-85.1
11
169.1
21
-98.9
0
LINE
8
0
10
169.1
20
-80.9
11
173.8
21
-80.9
0
LINE
8
0
10
176.2
20
-80.9
11
182.9
21
-80.9
0
LINE
8
0
10
182.9
20
-80.9
11
182.9
21
-67.1
0
LINE
8
0
10
182.9
20
-67.1
11
169.1
21
-67.1
0
LINE
8
0
10
169.1
20
-67.1
11
169.1
21
-80.9
0
LINE
8
0
10
169.1
20
-62.9
11
182.9
21
-62.9
0
LINE
8
0
10
182.9
20
-62.9
11
182.9
21
-49.1
0
LINE
8
0
10
182.9
20
-49.1
11
169.1
21
-49.1
0
LINE
8
0
10
169.1
20
-49.1
11
169.1
21
-62.9
0
LINE
8
0
10
169.1
20
-44.9
11
182.9
21
-44.9
0
LINE
8
0
10
182.9
20
-44.9
11
182.9
21
-31.1
0
LINE
8
0
10
182.9
20
-31.1
11
169.1
21
-31.1
0
LINE
8
0
10
169.1
20
-31.1
11
169.1
21
-44.9
0
LINE
8
0
10
188.1
20
-101.4
11
201.9
21
-101.4
0
LINE
8
0
10
201.9
20
-101.4
11
201.9
21
-87.6
0
LINE
8
0
10
201.9
20
-87.6
11
188.1
21
-87.6
0
LINE
8
0
10
188.1
20
-87.6
11
188.1
21
-101.4
0
LINE
8
0
10
188.1
20
-83.4
11
201.9
21
-83.4
0
LINE
8
0
10
201.9
20
-83.4
11
201.9
21
-69.6
0
LINE
8
0
10
201.9
20
-69.6
11
188.1
21
-69.6
0
LINE
8
0
10
188.1
20
-69.6
11
188.1
21
-83.4
0
LINE
8
0
10
188.1
20
-65.4
11
201.9
21
-65.4
0
LINE
8
0
10
201.9
20
-65.4
11
201.9
21
-51.6
0
LINE
8
0
10
201.9
20
-51.6
11
188.1
21
-51.6
0
LINE
8
0
10
188.1
20
-51.6
11
188.1
21
-65.4
0
LINE
8
0
10
188.1
20
-47.4
11
201.9
21
-47.4
0
LINE
8
0
10
201.9
20
-47.4
11
201.9
21
-33.6
0
LINE
8
0
10
201.9
20
-33.6
11
188.1
21
-33.6
0
LINE
8
0
10
188.1
20
-33.6
11
188.1
21
-47.4
0
LINE
8
0
10
207.1
20
-96.15
11
220.9
21
-96.15
0
LINE
8
0
10
220.9
20
-96.15
11
220.9
21
-82.35
0
LINE
8
0
10
220.9
20
-82.35
11
207.1
21
-82.35
0
LINE
8
0
10
207.1
20
-82.35
11
207.1
21
-96.15
0
LINE
8
0
10
140.4
20
-119.4
11
154.2
21
-119.4
0
LINE
8
0
10
154.2
20
-119.4
11
154.2
21
-105.6
0
LINE
8
0
10
154.2
20
-105.6
11
140.4
21
-105.6
0
LINE
8
0
10
140.4
20
-105.6
11
140.4
21
-119.4
0
LINE
8
0
10
159.4
20
-119.4
11
173.2
21
-119.4
0
LINE
8
0
10
173.2
20
-119.4
11
173.2
21
-105.6
0
LINE
8
0
10
173.2
20
-105.6
11
159.4
21
-105.6
0
LINE
8
0
10
159.4
20
-105.6
11
159.4
21
-119.4
0
LINE
8
0
10
178.4
20
-121.4
11
192.2
21
-121.4
0
LINE
8
0
10
192.2
20
-121.4
11
192.2
21
-107.6
0
LINE
8
0
10
192.2
20
-107.6
11
178.4
21
-107.6
0
LINE
8
0
10
178.4
20
-107.6
11
178.4
21
-121.4
0
LINE
8
0
10
207.2625423
20
-108.3304103
11
201.4304103
21
-120.8374577
0
LINE
8
0
10
201.4304103
20
-120.8374577
11
213.9374577
21
-126.6695897
0
LINE
8
0
10
213.9374577
20
-126.6695897
11
219.7695897
21
-114.1625423
0
LINE
8
0
10
219.7695897
20
-114.1625423
11
207.2625423
21
-108.3304103
0
CIRCLE
8
0
10
124
20
-32.44
40
1.5
0
CIRCLE
8
0
10
128
20
-111.6
40
1.5
0
CIRCLE
8
0
10
199
20
-108.95
40
1.5
0
ARC
8
0
10
175
20
-80
40
1.5
50
216.8698976
51
323.1301024
0
ENDSEC
0
EOF