0
SECTION
2
HEADER
9
$INSUNITS
70
4
0
ENDSEC
0
SECTION
2
TABLES
0
TABLE
2
LTYPE
0
LTYPE
72
65
70
64
2
CONTINUOUS
3
______
73
0
40
0
0
ENDTAB
0
TABLE
2
LAYER
0
ENDTAB
0
ENDSEC
0
SECTION
2
ENTITIES
0
LINE
8
0
10
91.25
20
-108.25
11
108.75
21
-108.25
0
LINE
8
0
10
108.75
20
-108.25
11
108.75
21
-91.75
0
LINE
8
0
10
108.75
20
-91.75
11
91.25
21
-91.75
0
LINE
8
0
10
91.25
20
-91.75
11
91.25
21
-108.25
0
LINE
8
0
10
91.25
20
-90.25
11
108.75
21
-90.25
0
LINE
8
0
10
108.75
20
-90.25
11
108.75
21
-73.75
0
LINE
8
0
10
108.75
20
-73.75
11
91.25
21
-73.75
0
LINE
8
0
10
91.25
20
-73.75
11
91.25
21
-90.25
0
LINE
8
0
10
91.25
20
-72.25
11
108.75
21
-72.25
0
LINE
8
0
10
108.75
20
-72.25
11
108.75
21
-55.75
0
LINE
8
0
10
108.75
20
-55.75
11
91.25
21
-55.75
0
LINE
8
0
10
91.25
20
-55.75
11
91.25
21
-72.25
0
LINE
8
0
10
91.25
20
-54.25
11
108.75
21
-54.25
0
LINE
8
0
10
108.75
20
-54.25
11
108.75
21
-37.75
0
LINE
8
0
10
108.75
20
-37.75
11
91.25
21
-37.75
0
LINE
8
0
10
91.25
20
-37.75
11
91.25
21
-54.25
0
LINE
8
0
10
110.25
20
-106.25
11
127.75
21
-106.25
0
LINE
8
0
10
127.75
20
-106.25
11
127.75
21
-89.75
0
LINE
8
0
10
127.75
20
-89.75
11
110.25
21
-89.75
0
LINE
8
0
10
110.25
20
-89.75
11
110.25
21
-106.25
0
LINE
8
0
10
110.25
20
-88.25
11
127.75
21
-88.25
0
LINE
8
0
10
127.75
20
-88.25
11
127.75
21
-71.75
0
LINE
8
0
10
127.75
20
-71.75
11
110.25
21
-71.75
0
LINE
8
0
10
110.25
20
-71.75
11
110.25
21
-88.25
0
LINE
8
0
10
110.25
20
-70.25
11
127.75
21
-70.25
0
LINE
8
0
10
127.75
20
-70.25
11
127.75
21
-53.75
0
LINE
8
0
10
127.75
20
-53.75
11
110.25
21
-53.75
0
LINE
8
0
10
110.25
20
-53.75
11
110.25
21
-70.25
0
LINE
8
0
10
110.25
20
-52.25
11
127.75
21
-52.25
0
LINE
8
0
10
127.75
20
-52.25
11
127.75
21
-35.75
0
LINE
8
0
10
127.75
20
-35.75
11
110.25
21
-35.75
0
LINE
8
0
10
110.25
20
-35.75
11
110.25
21
-52.25
0
LINE
8
0
10
129.25
20
-100.25
11
146.75
21
-100.25
0
LINE
8
0
10
146.75
20
-100.25
11
146.75
21
-83.75
0
LINE
8
0
10
146.75
20
-83.75
11
129.25
21
-83.75
0
LINE
8
0
10
129.25
20
-83.75
11
129.25
21
-100.25
0
LINE
8
0
10
129.25
20
-82.25
11
146.75
21
-82.25
0
LINE
8
0
10
146.75
20
-82.25
11
146.75
21
-65.75
0
LINE
8
0
10
146.75
20
-65.75
11
129.25
21
-65.75
0
LINE
8
0
10
129.25
20
-65.75
11
129.25
21
-82.25
0
LINE
8
0
10
129.25
20
-64.25
11
146.75
21
-64.25
0
LINE
8
0
10
146.75
20
-64.25
11
146.75
21
-47.75
0
LINE
8
0
10
146.75
20
-47.75
11
129.25
21
-47.75
0
LINE
8
0
10
129.25
20
-47.75
11
129.25
21
-64.25
0
LINE
8
0
10
129.25
20
-46.25
11
146.75
21
-46.25
0
LINE
8
0
10
146.75
20
-46.25
11
146.75
21
-29.75
0
LINE
8
0
10
146.75
20
-29.75
11
129.25
21
-29.75
0
LINE
8
0
10
129.25
20
-29.75
11
129.25
21
-46.25
0
LINE
8
0
10
148.25
20
-97.75
11
165.75
21
-97.75
0
LINE
8
0
10
165.75
20
-97.75
11
165.75
21
-81.25
0
LINE
8
0
10
165.75
20
-81.25
11
148.25
21
-81.25
0
LINE
8
0
10
148.25
20
-81.25
11
148.25
21
-97.75
0
LINE
8
0
10
148.25
20
-79.75
11
165.75
21
-79.75
0
LINE
8
0
10
165.75
20
-79.75
11
165.75
21
-63.25
0
LINE
8
0
10
165.75
20
-63.25
11
148.25
21
-63.25
0
LINE
8
0
10
148.25
20
-63.25
11
148.25
21
-79.75
0
LINE
8
0
10
148.25
20
-61.75
11
165.75
21
-61.75
0
LINE
8
0
10
165.75
20
-61.75
11
165.75
21
-45.25
0
LINE
8
0
10
165.75
20
-45.25
11
148.25
21
-45.25
0
LINE
8
0
10
148.25
20
-45.25
11
148.25
21
-61.75
0
LINE
8
0
10
148.25
20
-43.75
11
165.75
21
-43.75
0
LINE
8
0
10
165.75
20
-43.75
11
165.75
21
-27.25
0
LINE
8
0
10
165.75
20
-27.25
11
148.25
21
-27.25
0
LINE
8
0
10
148.25
20
-27.25
11
148.25
21
-43.75
0
LINE
8
0
10
167.25
20
-100.25
11
184.75
21
-100.25
0
LINE
8
0
10
184.75
20
-100.25
11
184.75
21
-83.75
0
LINE
8
0
10
184.75
20
-83.75
11
167.25
21
-83.75
0
LINE
8
0
10
167.25
20
-83.75
11
167.25
21
-100.25
0
LINE
8
0
10
167.25
20
-82.25
11
184.75
21
-82.25
0
LINE
8
0
10
184.75
20
-82.25
11
184.75
21
-65.75
0
LINE
8
0
10
184.75
20
-65.75
11
167.25
21
-65.75
0
LINE
8
0
10
167.25
20
-65.75
11
167.25
21
-82.25
0
LINE
8
0
10
167.25
20
-64.25
11
184.75
21
-64.25
0
LINE
8
0
10
184.75
20
-64.25
11
184.75
21
-47.75
0
LINE
8
0
10
184.75
20
-47.75
11
167.25
21
-47.75
0
LINE
8
0
10
167.25
20
-47.75
11
167.25
21
-64.25
0
LINE
8
0
10
167.25
20
-46.25
11
184.75
21
-46.25
0
LINE
8
0
10
184.75
20
-46.25
11
184.75
21
-29.75
0
LINE
8
0
10
184.75
20
-29.75
11
167.25
21
-29.75
0
LINE
8
0
10
167.25
20
-29.75
11
167.25
21
-46.25
0
LINE
8
0
10
186.25
20
-102.75
11
203.75
21
-102.75
0
LINE
8
0
10
203.75
20
-102.75
11
203.75
21
-86.25
0
LINE
8
0
10
203.75
20
-86.25
11
186.25
21
-86.25
0
LINE
8
0
10
186.25
20
-86.25
11
186.25
21
-102.75
0
LINE
8
0
10
186.25
20
-84.75
11
203.75
21
-84.75
0
LINE
8
0
10
203.75
20
-84.75
11
203.75
21
-68.25
0
LINE
8
0
10
203.75
20
-68.25
11
186.25
21
-68.25
0
LINE
8
0
10
186.25
20
-68.25
11
186.25
21
-84.75
0
LINE
8
0
10
186.25
20
-66.75
11
203.75
21
-66.75
0
LINE
8
0
10
203.75
20
-66.75
11
203.75
21
-50.25
0
LINE
8
0
10
203.75
20
-50.25
11
186.25
21
-50.25
0
LINE
8
0
10
186.25
20
-50.25
11
186.25
21
-66.75
0
LINE
8
0
10
186.25
20
-48.75
11
203.75
21
-48.75
0
LINE
8
0
10
203.75
20
-48.75
11
203.75
21
-32.25
0
LINE
8
0
10
203.75
20
-32.25
11
186.25
21
-32.25
0
LINE
8
0
10
186.25
20
-32.25
11
186.25
21
-48.75
0
LINE
8
0
10
205.25
20
-97.5
11
222.75
21
-97.5
0
LINE
8
0
10
222.75
20
-97.5
11
222.75
21
-81
0
LINE
8
0
10
222.75
20
-81
11
205.25
21
-81
0
LINE
8
0
10
205.25
20
-81
11
205.25
21
-97.5
0
LINE
8
0
10
138.55
20
-120.75
11
156.05
21
-120.75
0
LINE
8
0
10
156.05
20
-120.75
11
156.05
21
-104.25
0
LINE
8
0
10
156.05
20
-104.25
11
138.55
21
-104.25
0
LINE
8
0
10
138.55
20
-104.25
11
138.55
21
-120.75
0
LINE
8
0
10
157.55
20
-120.75
11
175.05
21
-120.75
0
LINE
8
0
10
175.05
20
-120.75
11
175.05
21
-104.25
0
LINE
8
0
10
175.05
20
-104.25
11
157.55
21
-104.25
0
LINE
8
0
10
157.55
20
-104.25
11
157.55
21
-120.75
0
LINE
8
0
10
176.55
20
-122.75
11
194.05
21
-122.75
0
LINE
8
0
10
194.05
20
-122.75
11
194.05
21
-106.25
0
LINE
8
0
10
194.05
20
-106.25
11
176.55
21
-106.25
0
LINE
8
0
10
176.55
20
-106.25
11
176.55
21
-122.75
0
LINE
8
0
10
206.8208705
20
-106.0832062
11
199.425051
21
-121.9435925
0
LINE
8
0
10
199.425051
20
-121.9435925
11
214.3791295
21
-128.9167938
0
LINE
8
0
10
214.3791295
20
-128.9167938
11
221.774949
21
-113.0564075
0
LINE
8
0
10
221.774949
20
-113.0564075
11
206.8208705
21
-106.0832062
0
ENDSEC
0
EOF