0
SECTION
2
HEADER
9
$INSUNITS
70
4
0
ENDSEC
0
SECTION
2
TABLES
0
TABLE
2
LTYPE
0
LTYPE
72
65
70
64
2
CONTINUOUS
3
______
73
0
40
0
0
ENDTAB
0
TABLE
2
LAYER
0
ENDTAB
0
ENDSEC
0
SECTION
2
ENTITIES
0
LINE
8
0
10
93.1
20
-106.9
11
106.9
21
-106.9
0
LINE
8
0
10
106.9
20
-106.9
11
106.9
21
-93.1
0
LINE
8
0
10
106.9
20
-93.1
11
93.1
21
-93.1
0
LINE
8
0
10
93.1
20
-93.1
11
93.1
21
-106.9
0
LINE
8
0
10
93.1
20
-88.9
11
106.9
21
-88.9
0
LINE
8
0
10
106.9
20
-88.9
11
106.9
21
-75.1
0
LINE
8
0
10
106.9
20
-75.1
11
93.1
21
-75.1
0
LINE
8
0
10
93.1
20
-75.1
11
93.1
21
-88.9
0
LINE
8
0
10
93.1
20
-70.9
11
106.9
21
-70.9
0
LINE
8
0
10
106.9
20
-70.9
11
106.9
21
-57.1
0
LINE
8
0
10
106.9
20
-57.1
11
93.1
21
-57.1
0
LINE
8
0
10
93.1
20
-57.1
11
93.1
21
-70.9
0
LINE
8
0
10
93.1
20
-52.9
11
106.9
21
-52.9
0
LINE
8
0
10
106.9
20
-52.9
11
106.9
21
-39.1
0
LINE
8
0
10
106.9
20
-39.1
11
93.1
21
-39.1
0
LINE
8
0
10
93.1
20
-39.1
11
93.1
21
-52.9
0
LINE
8
0
10
112.1
20
-104.9
11
125.9
21
-104.9
0
LINE
8
0
10
125.9
20
-104.9
11
125.9
21
-91.1
0
LINE
8
0
10
125.9
20
-91.1
11
112.1
21
-91.1
0
LINE
8
0
10
112.1
20
-91.1
11
112.1
21
-104.9
0
LINE
8
0
10
112.1
20
-86.9
11
125.9
21
-86.9
0
LINE
8
0
10
125.9
20
-86.9
11
125.9
21
-73.1
0
LINE
8
0
10
125.9
20
-73.1
11
112.1
21
-73.1
0
LINE
8
0
10
112.1
20
-73.1
11
112.1
21
-86.9
0
LINE
8
0
10
112.1
20
-68.9
11
125.9
21
-68.9
0
LINE
8
0
10
125.9
20
-68.9
11
125.9
21
-55.1
0
LINE
8
0
10
125.9
20
-55.1
11
112.1
21
-55.1
0
LINE
8
0
10
112.1
20
-55.1
11
112.1
21
-68.9
0
LINE
8
0
10
112.1
20
-50.9
11
125.9
21
-50.9
0
LINE
8
0
10
125.9
20
-50.9
11
125.9
21
-37.1
0
LINE
8
0
10
125.9
20
-37.1
11
112.1
21
-37.1
0
LINE
8
0
10
112.1
20
-37.1
11
112.1
21
-50.9
0
LINE
8
0
10
131.1
20
-98.9
11
144.9
21
-98.9
0
LINE
8
0
10
144.9
20
-98.9
11
144.9
21
-85.1
0
LINE
8
0
10
144.9
20
-85.1
11
131.1
21
-85.1
0
LINE
8
0
10
131.1
20
-85.1
11
131.1
21
-98.9
0
LINE
8
0
10
131.1
20
-80.9
11
144.9
21
-80.9
0
LINE
8
0
10
144.9
20
-80.9
11
144.9
21
-67.1
0
LINE
8
0
10
144.9
20
-67.1
11
131.1
21
-67.1
0
LINE
8
0
10
131.1
20
-67.1
11
131.1
21
-80.9
0
LINE
8
0
10
131.1
20
-62.9
11
144.9
21
-62.9
0
LINE
8
0
10
144.9
20
-62.9
11
144.9
21
-49.1
0
LINE
8
0
10
144.9
20
-49.1
11
131.1
21
-49.1
0
LINE
8
0
10
131.1
20
-49.1
11
131.1
21
-62.9
0
LINE
8
0
10
131.1
20
-44.9
11
144.9
21
-44.9
0
LINE
8
0
10
144.9
20
-44.9
11
144.9
21
-31.1
0
LINE
8
0
10
144.9
20
-31.1
11
131.1
21
-31.1
0
LINE
8
0
10
131.1
20
-31.1
11
131.1
21
-44.9
0
LINE
8
0
10
150.1
20
-96.4
11
163.9
21
-96.4
0
LINE
8
0
10
163.9
20
-96.4
11
163.9
21
-82.6
0
LINE
8
0
10
163.9
20
-82.6
11
150.1
21
-82.6
0
LINE
8
0
10
150.1
20
-82.6
11
150.1
21
-96.4
0
LINE
8
0
10
150.1
20
-78.4
11
163.9
21
-78.4
0
LINE
8
0
10
163.9
20
-78.4
11
163.9
21
-64.6
0
LINE
8
0
10
163.9
20
-64.6
11
150.1
21
-64.6
0
LINE
8
0
10
150.1
20
-64.6
11
150.1
21
-78.4
0
LINE
8
0
10
150.1
20
-60.4
11
163.9
21
-60.4
0
LINE
8
0
10
163.9
20
-60.4
11
163.9
21
-46.6
0
LINE
8
0
10
163.9
20
-46.6
11
150.1
21
-46.6
0
LINE
8
0
10
150.1
20
-46.6
11
150.1
21
-60.4
0
LINE
8
0
10
150.1
20
-42.4
11
163.9
21
-42.4
0
LINE
8
0
10
163.9
20
-42.4
11
163.9
21
-28.6
0
LINE
8
0
10
163.9
20
-28.6
11
150.1
21
-28.6
0
LINE
8
0
10
150.1
20
-28.6
11
150.1
21
-42.4
0
LINE
8
0
10
169.1
20
-98.9
11
182.9
21
-98.9
0
LINE
8
0
10
182.9
20
-98.9
11
182.9
21
-85.1
0
LINE
8
0
10
182.9
20
-85.1
11
169.1
21
-85.1
0
LINE
8
0
10
169.1
20
-85.1
11
169.1
21
-98.9
0
LINE
8
0
10
169.1
20
-80.9
11
182.9
21
-80.9
0
LINE
8
0
10
182.9
20
-80.9
11
182.9
21
-67.1
0
LINE
8
0
10
182.9
20
-67.1
11
169.1
21
-67.1
0
LINE
8
0
10
169.1
20
-67.1
11
169.1
21
-80.9
0
LINE
8
0
10
169.1
20
-62.9
11
182.9
21
-62.9
0
LINE
8
0
10
182.9
20
-62.9
11
182.9
21
-49.1
0
LINE
8
0
10
182.9
20
-49.1
11
169.1
21
-49.1
0
LINE
8
0
10
169.1
20
-49.1
11
169.1
21
-62.9
0
LINE
8
0
10
169.1
20
-44.9
11
182.9
21
-44.9
0
LINE
8
0
10
182.9
20
-44.9
11
182.9
21
-31.1
0
LINE
8
0
10
182.9
20
-31.1
11
169.1
21
-31.1
0
LINE
8
0
10
169.1
20
-31.1
11
169.1
21
-44.9
0
LINE
8
0
10
188.1
20
-101.4
11
201.9
21
-101.4
0
LINE
8
0
10
201.9
20
-101.4
11
201.9
21
-87.6
0
LINE
8
0
10
201.9
20
-87.6
11
188.1
21
-87.6
0
LINE
8
0
10
188.1
20
-87.6
11
188.1
21
-101.4
0
LINE
8
0
10
188.1
20
-83.4
11
201.9
21
-83.4
0
LINE
8
0
10
201.9
20
-83.4
11
201.9
21
-69.6
0
LINE
8
0
10
201.9
20
-69.6
11
188.1
21
-69.6
0
LINE
8
0
10
188.1
20
-69.6
11
188.1
21
-83.4
0
LINE
8
0
10
188.1
20
-65.4
11
201.9
21
-65.4
0
LINE
8
0
10
201.9
20
-65.4
11
201.9
21
-51.6
0
LINE
8
0
10
201.9
20
-51.6
11
188.1
21
-51.6
0
LINE
8
0
10
188.1
20
-51.6
11
188.1
21
-65.4
0
LINE
8
0
10
188.1
20
-47.4
11
201.9
21
-47.4
0
LINE
8
0
10
201.9
20
-47.4
11
201.9
21
-33.6
0
LINE
8
0
10
201.9
20
-33.6
11
188.1
21
-33.6
0
LINE
8
0
10
188.1
20
-33.6
11
188.1
21
-47.4
0
LINE
8
0
10
207.1
20
-96.15
11
220.9
21
-96.15
0
LINE
8
0
10
220.9
20
-96.15
11
220.9
21
-82.35
0
LINE
8
0
10
220.9
20
-82.35
11
207.1
21
-82.35
0
LINE
8
0
10
207.1
20
-82.35
11
207.1
21
-96.15
0
LINE
8
0
10
140.4
20
-119.4
11
154.2
21
-119.4
0
LINE
8
0
10
154.2
20
-119.4
11
154.2
21
-105.6
0
LINE
8
0
10
154.2
20
-105.6
11
140.4
21
-105.6
0
LINE
8
0
10
140.4
20
-105.6
11
140.4
21
-119.4
0
LINE
8
0
10
159.4
20
-119.4
11
173.2
21
-119.4
0
LINE
8
0
10
173.2
20
-119.4
11
173.2
21
-105.6
0
LINE
8
0
10
173.2
20
-105.6
11
159.4
21
-105.6
0
LINE
8
0
10
159.4
20
-105.6
11
159.4
21
-119.4
0
LINE
8
0
10
178.4
20
-121.4
11
192.2
21
-121.4
0
LINE
8
0
10
192.2
20
-121.4
11
192.2
21
-107.6
0
LINE
8
0
10
192.2
20
-107.6
11
178.4
21
-107.6
0
LINE
8
0
10
178.4
20
-107.6
11
178.4
21
-121.4
0
LINE
8
0
10
207.2625423
20
-108.3304103
11
201.4304103
21
-120.8374577
0
LINE
8
0
10
201.4304103
20
-120.8374577
11
213.9374577
21
-126.6695897
0
LINE
8
0
10
213.9374577
20
-126.6695897
11
219.7695897
21
-114.1625423
0
LINE
8
0
10
219.7695897
20
-114.1625423
11
207.2625423
21
-108.3304103
0
LINE
8
0
10
382.1
20
-106.9
11
395.9
21
-106.9
0
LINE
8
0
10
395.9
20
-106.9
11
395.9
21
-93.1
0
LINE
8
0
10
395.9
20
-93.1
11
382.1
21
-93.1
0
LINE
8
0
10
382.1
20
-93.1
11
382.1
21
-106.9
0
LINE
8
0
10
382.1
20
-88.9
11
395.9
21
-88.9
0
LINE
8
0
10
395.9
20
-88.9
11
395.9
21
-75.1
0
LINE
8
0
10
395.9
20
-75.1
11
382.1
21
-75.1
0
LINE
8
0
10
382.1
20
-75.1
11
382.1
21
-88.9
0
LINE
8
0
10
382.1
20
-70.9
11
395.9
21
-70.9
0
LINE
8
0
10
395.9
20
-70.9
11
395.9
21
-57.1
0
LINE
8
0
10
395.9
20
-57.1
11
382.1
21
-57.1
0
LINE
8
0
10
382.1
20
-57.1
11
382.1
21
-70.9
0
LINE
8
0
10
382.1
20
-52.9
11
395.9
21
-52.9
0
LINE
8
0
10
395.9
20
-52.9
11
395.9
21
-39.1
0
LINE
8
0
10
395.9
20
-39.1
11
382.1
21
-39.1
0
LINE
8
0
10
382.1
20
-39.1
11
382.1
21
-52.9
0
LINE
8
0
10
363.1
20
-104.9
11
376.9
21
-104.9
0
LINE
8
0
10
376.9
20
-104.9
11
376.9
21
-91.1
0
LINE
8
0
10
376.9
20
-91.1
11
363.1
21
-91.1
0
LINE
8
0
10
363.1
20
-91.1
11
363.1
21
-104.9
0
LINE
8
0
10
363.1
20
-86.9
11
376.9
21
-86.9
0
LINE
8
0
10
376.9
20
-86.9
11
376.9
21
-73.1
0
LINE
8
0
10
376.9
20
-73.1
11
363.1
21
-73.1
0
LINE
8
0
10
363.1
20
-73.1
11
363.1
21
-86.9
0
LINE
8
0
10
363.1
20
-68.9
11
376.9
21
-68.9
0
LINE
8
0
10
376.9
20
-68.9
11
376.9
21
-55.1
0
LINE
8
0
10
376.9
20
-55.1
11
363.1
21
-55.1
0
LINE
8
0
10
363.1
20
-55.1
11
363.1
21
-68.9
0
LINE
8
0
10
363.1
20
-50.9
11
376.9
21
-50.9
0
LINE
8
0
10
376.9
20
-50.9
11
376.9
21
-37.1
0
LINE
8
0
10
376.9
20
-37.1
11
363.1
21
-37.1
0
LINE
8
0
10
363.1
20
-37.1
11
363.1
21
-50.9
0
LINE
8
0
10
344.1
20
-98.9
11
357.9
21
-98.9
0
LINE
8
0
10
357.9
20
-98.9
11
357.9
21
-85.1
0
LINE
8
0
10
357.9
20
-85.1
11
344.1
21
-85.1
0
LINE
8
0
10
344.1
20
-85.1
11
344.1
21
-98.9
0
LINE
8
0
10
344.1
20
-80.9
11
357.9
21
-80.9
0
LINE
8
0
10
357.9
20
-80.9
11
357.9
21
-67.1
0
LINE
8
0
10
357.9
20
-67.1
11
344.1
21
-67.1
0
LINE
8
0
10
344.1
20
-67.1
11
344.1
21
-80.9
0
LINE
8
0
10
344.1
20
-62.9
11
357.9
21
-62.9
0
LINE
8
0
10
357.9
20
-62.9
11
357.9
21
-49.1
0
LINE
8
0
10
357.9
20
-49.1
11
344.1
21
-49.1
0
LINE
8
0
10
344.1
20
-49.1
11
344.1
21
-62.9
0
LINE
8
0
10
344.1
20
-44.9
11
357.9
21
-44.9
0
LINE
8
0
10
357.9
20
-44.9
11
357.9
21
-31.1
0
LINE
8
0
10
357.9
20
-31.1
11
344.1
21
-31.1
0
LINE
8
0
10
344.1
20
-31.1
11
344.1
21
-44.9
0
LINE
8
0
10
325.1
20
-96.4
11
338.9
21
-96.4
0
LINE
8
0
10
338.9
20
-96.4
11
338.9
21
-82.6
0
LINE
8
0
10
338.9
20
-82.6
11
325.1
21
-82.6
0
LINE
8
0
10
325.1
20
-82.6
11
325.1
21
-96.4
0
LINE
8
0
10
325.1
20
-78.4
11
338.9
21
-78.4
0
LINE
8
0
10
338.9
20
-78.4
11
338.9
21
-64.6
0
LINE
8
0
10
338.9
20
-64.6
11
325.1
21
-64.6
0
LINE
8
0
10
325.1
20
-64.6
11
325.1
21
-78.4
0
LINE
8
0
10
325.1
20
-60.4
11
338.9
21
-60.4
0
LINE
8
0
10
338.9
20
-60.4
11
338.9
21
-46.6
0
LINE
8
0
10
338.9
20
-46.6
11
325.1
21
-46.6
0
LINE
8
0
10
325.1
20
-46.6
11
325.1
21
-60.4
0
LINE
8
0
10
325.1
20
-42.4
11
338.9
21
-42.4
0
LINE
8
0
10
338.9
20
-42.4
11
338.9
21
-28.6
0
LINE
8
0
10
338.9
20
-28.6
11
325.1
21
-28.6
0
LINE
8
0
10
325.1
20
-28.6
11
325.1
21
-42.4
0
LINE
8
0
10
306.1
20
-98.9
11
319.9
21
-98.9
0
LINE
8
0
10
319.9
20
-98.9
11
319.9
21
-85.1
0
LINE
8
0
10
319.9
20
-85.1
11
306.1
21
-85.1
0
LINE
8
0
10
306.1
20
-85.1
11
306.1
21
-98.9
0
LINE
8
0
10
306.1
20
-80.9
11
319.9
21
-80.9
0
LINE
8
0
10
319.9
20
-80.9
11
319.9
21
-67.1
0
LINE
8
0
10
319.9
20
-67.1
11
306.1
21
-67.1
0
LINE
8
0
10
306.1
20
-67.1
11
306.1
21
-80.9
0
LINE
8
0
10
306.1
20
-62.9
11
319.9
21
-62.9
0
LINE
8
0
10
319.9
20
-62.9
11
319.9
21
-49.1
0
LINE
8
0
10
319.9
20
-49.1
11
306.1
21
-49.1
0
LINE
8
0
10
306.1
20
-49.1
11
306.1
21
-62.9
0
LINE
8
0
10
306.1
20
-44.9
11
319.9
21
-44.9
0
LINE
8
0
10
319.9
20
-44.9
11
319.9
21
-31.1
0
LINE
8
0
10
319.9
20
-31.1
11
306.1
21
-31.1
0
LINE
8
0
10
306.1
20
-31.1
11
306.1
21
-44.9
0
LINE
8
0
10
287.1
20
-101.4
11
300.9
21
-101.4
0
LINE
8
0
10
300.9
20
-101.4
11
300.9
21
-87.6
0
LINE
8
0
10
300.9
20
-87.6
11
287.1
21
-87.6
0
LINE
8
0
10
287.1
20
-87.6
11
287.1
21
-101.4
0
LINE
8
0
10
287.1
20
-83.4
11
300.9
21
-83.4
0
LINE
8
0
10
300.9
20
-83.4
11
300.9
21
-69.6
0
LINE
8
0
10
300.9
20
-69.6
11
287.1
21
-69.6
0
LINE
8
0
10
287.1
20
-69.6
11
287.1
21
-83.4
0
LINE
8
0
10
287.1
20
-65.4
11
300.9
21
-65.4
0
LINE
8
0
10
300.9
20
-65.4
11
300.9
21
-51.6
0
LINE
8
0
10
300.9
20
-51.6
11
287.1
21
-51.6
0
LINE
8
0
10
287.1
20
-51.6
11
287.1
21
-65.4
0
LINE
8
0
10
287.1
20
-47.4
11
300.9
21
-47.4
0
LINE
8
0
10
300.9
20
-47.4
11
300.9
21
-33.6
0
LINE
8
0
10
300.9
20
-33.6
11
287.1
21
-33.6
0
LINE
8
0
10
287.1
20
-33.6
11
287.1
21
-47.4
0
LINE
8
0
10
268.1
20
-96.15
11
281.9
21
-96.15
0
LINE
8
0
10
281.9
20
-96.15
11
281.9
21
-82.35
0
LINE
8
0
10
281.9
20
-82.35
11
268.1
21
-82.35
0
LINE
8
0
10
268.1
20
-82.35
11
268.1
21
-96.15
0
LINE
8
0
10
334.8
20
-119.4
11
348.6
21
-119.4
0
LINE
8
0
10
348.6
20
-119.4
11
348.6
21
-105.6
0
LINE
8
0
10
348.6
20
-105.6
11
334.8
21
-105.6
0
LINE
8
0
10
334.8
20
-105.6
11
334.8
21
-119.4
0
LINE
8
0
10
315.8
20
-119.4
11
329.6
21
-119.4
0
LINE
8
0
10
329.6
20
-119.4
11
329.6
21
-105.6
0
LINE
8
0
10
329.6
20
-105.6
11
315.8
21
-105.6
0
LINE
8
0
10
315.8
20
-105.6
11
315.8
21
-119.4
0
LINE
8
0
10
296.8
20
-121.4
11
310.6
21
-121.4
0
LINE
8
0
10
310.6
20
-121.4
11
310.6
21
-107.6
0
LINE
8
0
10
310.6
20
-107.6
11
296.8
21
-107.6
0
LINE
8
0
10
296.8
20
-107.6
11
296.8
21
-121.4
0
LINE
8
0
10
287.5695897
20
-120.8374577
11
281.7374577
21
-108.3304103
0
LINE
8
0
10
281.7374577
20
-108.3304103
11
269.2304103
21
-114.1625423
0
LINE
8
0
10
269.2304103
20
-114.1625423
11
275.0625423
21
-126.6695897
0
LINE
8
0
10
275.0625423
20
-126.6695897
11
287.5695897
21
-120.8374577
0
ENDSEC
0
EOF