0
SECTION
2
HEADER
9
$INSUNITS
70
4
0
ENDSEC
0
SECTION
2
TABLES
0
TABLE
2
LTYPE
0
LTYPE
72
65
70
64
2
CONTINUOUS
3
______
73
0
40
0
0
ENDTAB
0
TABLE
2
LAYER
0
ENDTAB
0
ENDSEC
0
SECTION
2
ENTITIES
0
LINE
8
0
10
90
20
-109.5
11
110
21
-109.5
0
LINE
8
0
10
110
20
-109.5
11
110
21
-107.5
0
LINE
8
0
10
90
20
-109.5
11
90
21
-36.5
0
LINE
8
0
10
109
20
-36.5
11
90
21
-36.5
0
LINE
8
0
10
110
20
-107.5
11
129
21
-107.5
0
LINE
8
0
10
129
20
-107.5
11
129
21
-101.5
0
LINE
8
0
10
128
20
-34.5
11
109
21
-34.5
0
LINE
8
0
10
109
20
-34.5
11
109
21
-36.5
0
LINE
8
0
10
129
20
-101.5
11
148
21
-101.5
0
LINE
8
0
10
148
20
-101.5
11
148
21
-99
0
LINE
8
0
10
147
20
-28.5
11
128
21
-28.5
0
LINE
8
0
10
128
20
-28.5
11
128
21
-34.5
0
LINE
8
0
10
148
20
-99
11
166
21
-99
0
LINE
8
0
10
167
20
-28.5
11
167
21
-26
0
LINE
8
0
10
167
20
-26
11
147
21
-26
0
LINE
8
0
10
147
20
-26
11
147
21
-28.5
0
LINE
8
0
10
166
20
-101.5
11
185
21
-101.5
0
LINE
8
0
10
166
20
-99
11
166
21
-101.5
0
LINE
8
0
10
186
20
-31
11
186
21
-28.5
0
LINE
8
0
10
186
20
-28.5
11
167
21
-28.5
0
LINE
8
0
10
185
20
-104
11
205
21
-104
0
LINE
8
0
10
205
20
-104
11
205
21
-98.75
0
LINE
8
0
10
185
20
-101.5
11
185
21
-104
0
LINE
8
0
10
205
20
-79.75
11
205
21
-31
0
LINE
8
0
10
205
20
-31
11
186
21
-31
0
LINE
8
0
10
205
20
-98.75
11
224
21
-98.75
0
LINE
8
0
10
224
20
-98.75
11
224
21
-79.75
0
LINE
8
0
10
224
20
-79.75
11
205
21
-79.75
0
LINE
8
0
10
137.3
20
-122
11
175.3
21
-122
0
LINE
8
0
10
137.3
20
-103
11
176.3
21
-103
0
LINE
8
0
10
137.3
20
-103
11
137.3
21
-122
0
LINE
8
0
10
176.3
20
-105
11
176.3
21
-103
0
LINE
8
0
10
175.3
20
-124
11
195.3
21
-124
0
LINE
8
0
10
195.3
20
-124
11
195.3
21
-105
0
LINE
8
0
10
195.3
20
-105
11
176.3
21
-105
0
LINE
8
0
10
175.3
20
-122
11
175.3
21
-124
0
LINE
8
0
10
206.2162586
20
-104.4220486
11
197.7638934
21
-122.5482044
0
LINE
8
0
10
197.7638934
20
-122.5482044
11
214.9837414
21
-130.5779514
0
LINE
8
0
10
214.9837414
20
-130.5779514
11
223.4361066
21
-112.4517956
0
LINE
8
0
10
223.4361066
20
-112.4517956
11
206.2162586
21
-104.4220486
0
LINE
8
0
10
379
20
-109.5
11
399
21
-109.5
0
LINE
8
0
10
399
20
-109.5
11
399
21
-36.5
0
LINE
8
0
10
379
20
-107.5
11
379
21
-109.5
0
LINE
8
0
10
399
20
-36.5
11
380
21
-36.5
0
LINE
8
0
10
360
20
-107.5
11
379
21
-107.5
0
LINE
8
0
10
360
20
-101.5
11
360
21
-107.5
0
LINE
8
0
10
380
20
-36.5
11
380
21
-34.5
0
LINE
8
0
10
380
20
-34.5
11
361
21
-34.5
0
LINE
8
0
10
341
20
-101.5
11
360
21
-101.5
0
LINE
8
0
10
341
20
-99
11
341
21
-101.5
0
LINE
8
0
10
361
20
-34.5
11
361
21
-28.5
0
LINE
8
0
10
361
20
-28.5
11
342
21
-28.5
0
LINE
8
0
10
323
20
-99
11
341
21
-99
0
LINE
8
0
10
342
20
-28.5
11
342
21
-26
0
LINE
8
0
10
342
20
-26
11
322
21
-26
0
LINE
8
0
10
322
20
-26
11
322
21
-28.5
0
LINE
8
0
10
304
20
-101.5
11
323
21
-101.5
0
LINE
8
0
10
323
20
-101.5
11
323
21
-99
0
LINE
8
0
10
322
20
-28.5
11
303
21
-28.5
0
LINE
8
0
10
303
20
-28.5
11
303
21
-31
0
LINE
8
0
10
284
20
-104
11
304
21
-104
0
LINE
8
0
10
304
20
-104
11
304
21
-101.5
0
LINE
8
0
10
284
20
-98.75
11
284
21
-104
0
LINE
8
0
10
284
20
-79.75
11
284
21
-31
0
LINE
8
0
10
303
20
-31
11
284
21
-31
0
LINE
8
0
10
265
20
-98.75
11
284
21
-98.75
0
LINE
8
0
10
284
20
-79.75
11
265
21
-79.75
0
LINE
8
0
10
265
20
-79.75
11
265
21
-98.75
0
LINE
8
0
10
313.7
20
-122
11
351.7
21
-122
0
LINE
8
0
10
351.7
20
-122
11
351.7
21
-103
0
LINE
8
0
10
312.7
20
-103
11
351.7
21
-103
0
LINE
8
0
10
312.7
20
-103
11
312.7
21
-105
0
LINE
8
0
10
293.7
20
-124
11
313.7
21
-124
0
LINE
8
0
10
313.7
20
-124
11
313.7
21
-122
0
LINE
8
0
10
312.7
20
-105
11
293.7
21
-105
0
LINE
8
0
10
293.7
20
-105
11
293.7
21
-124
0
LINE
8
0
10
291.2361066
20
-122.5482044
11
282.7837414
21
-104.4220486
0
LINE
8
0
10
282.7837414
20
-104.4220486
11
265.5638934
21
-112.4517956
0
LINE
8
0
10
265.5638934
20
-112.4517956
11
274.0162586
21
-130.5779514
0
LINE
8
0
10
274.0162586
20
-130.5779514
11
291.2361066
21
-122.5482044
0
ENDSEC
0
EOF