0
SECTION
2
HEADER
9
$INSUNITS
70
4
0
ENDSEC
0
SECTION
2
TABLES
0
TABLE
2
LTYPE
0
LTYPE
72
65
70
64
2
CONTINUOUS
3
______
73
0
40
0
0
ENDTAB
0
TABLE
2
LAYER
0
ENDTAB
0
ENDSEC
0
SECTION
2
ENTITIES
0
LINE
8
0
10
90
20
-107.5
11
110
21
-107.5
0
LINE
8
0
10
110
20
-107.5
11
110
21
-101.5
0
LINE
8
0
10
90
20
-107.5
11
90
21
-34.5
0
LINE
8
0
10
109
20
-34.5
11
90
21
-34.5
0
LINE
8
0
10
110
20
-101.5
11
129
21
-101.5
0
LINE
8
0
10
129
20
-101.5
11
129
21
-99
0
LINE
8
0
10
128
20
-28.5
11
109
21
-28.5
0
LINE
8
0
10
109
20
-28.5
11
109
21
-34.5
0
LINE
8
0
10
129
20
-99
11
147
21
-99
0
LINE
8
0
10
148
20
-28.5
11
148
21
-26
0
LINE
8
0
10
148
20
-26
11
128
21
-26
0
LINE
8
0
10
128
20
-26
11
128
21
-28.5
0
LINE
8
0
10
147
20
-101.5
11
166
21
-101.5
0
LINE
8
0
10
147
20
-99
11
147
21
-101.5
0
LINE
8
0
10
167
20
-31
11
167
21
-28.5
0
LINE
8
0
10
167
20
-28.5
11
148
21
-28.5
0
LINE
8
0
10
166
20
-104
11
186
21
-104
0
LINE
8
0
10
186
20
-104
11
186
21
-98.75
0
LINE
8
0
10
166
20
-101.5
11
166
21
-104
0
LINE
8
0
10
186
20
-79.75
11
186
21
-31
0
LINE
8
0
10
186
20
-31
11
167
21
-31
0
LINE
8
0
10
186
20
-98.75
11
204.5
21
-98.75
0
LINE
8
0
10
204.5
20
-98.75
11
204.5
21
-79.75
0
LINE
8
0
10
204.5
20
-79.75
11
186
21
-79.75
0
LINE
8
0
10
118.3
20
-122
11
156.3
21
-122
0
LINE
8
0
10
118.3
20
-103
11
157.3
21
-103
0
LINE
8
0
10
118.3
20
-103
11
118.3
21
-122
0
LINE
8
0
10
157.3
20
-105
11
157.3
21
-103
0
LINE
8
0
10
156.3
20
-124
11
176.3
21
-124
0
LINE
8
0
10
176.3
20
-124
11
176.3
21
-105
0
LINE
8
0
10
176.3
20
-105
11
157.3
21
-105
0
LINE
8
0
10
156.3
20
-122
11
156.3
21
-124
0
LINE
8
0
10
187.2162586
20
-104.4220486
11
178.7638934
21
-122.5482044
0
LINE
8
0
10
178.7638934
20
-122.5482044
11
195.9837414
21
-130.5779514
0
LINE
8
0
10
195.9837414
20
-130.5779514
11
204.4361066
21
-112.4517956
0
LINE
8
0
10
204.4361066
20
-112.4517956
11
187.2162586
21
-104.4220486
0
LINE
8
0
10
341
20
-107.5
11
361
21
-107.5
0
LINE
8
0
10
361
20
-107.5
11
361
21
-34.5
0
LINE
8
0
10
341
20
-101.5
11
341
21
-107.5
0
LINE
8
0
10
361
20
-34.5
11
342
21
-34.5
0
LINE
8
0
10
322
20
-101.5
11
341
21
-101.5
0
LINE
8
0
10
322
20
-99
11
322
21
-101.5
0
LINE
8
0
10
342
20
-34.5
11
342
21
-28.5
0
LINE
8
0
10
342
20
-28.5
11
323
21
-28.5
0
LINE
8
0
10
304
20
-99
11
322
21
-99
0
LINE
8
0
10
323
20
-28.5
11
323
21
-26
0
LINE
8
0
10
323
20
-26
11
303
21
-26
0
LINE
8
0
10
303
20
-26
11
303
21
-28.5
0
LINE
8
0
10
285
20
-101.5
11
304
21
-101.5
0
LINE
8
0
10
304
20
-101.5
11
304
21
-99
0
LINE
8
0
10
303
20
-28.5
11
284
21
-28.5
0
LINE
8
0
10
284
20
-28.5
11
284
21
-31
0
LINE
8
0
10
265
20
-104
11
285
21
-104
0
LINE
8
0
10
285
20
-104
11
285
21
-101.5
0
LINE
8
0
10
265
20
-98.75
11
265
21
-104
0
LINE
8
0
10
265
20
-79.75
11
265
21
-31
0
LINE
8
0
10
284
20
-31
11
265
21
-31
0
LINE
8
0
10
246.5
20
-98.75
11
265
21
-98.75
0
LINE
8
0
10
265
20
-79.75
11
246.5
21
-79.75
0
LINE
8
0
10
246.5
20
-79.75
11
246.5
21
-98.75
0
LINE
8
0
10
294.7
20
-122
11
332.7
21
-122
0
LINE
8
0
10
332.7
20
-122
11
332.7
21
-103
0
LINE
8
0
10
293.7
20
-103
11
332.7
21
-103
0
LINE
8
0
10
293.7
20
-103
11
293.7
21
-105
0
LINE
8
0
10
274.7
20
-124
11
294.7
21
-124
0
LINE
8
0
10
294.7
20
-124
11
294.7
21
-122
0
LINE
8
0
10
293.7
20
-105
11
274.7
21
-105
0
LINE
8
0
10
274.7
20
-105
11
274.7
21
-124
0
LINE
8
0
10
272.2361066
20
-122.5482044
11
263.7837414
21
-104.4220486
0
LINE
8
0
10
263.7837414
20
-104.4220486
11
246.5638934
21
-112.4517956
0
LINE
8
0
10
246.5638934
20
-112.4517956
11
255.0162586
21
-130.5779514
0
LINE
8
0
10
255.0162586
20
-130.5779514
11
272.2361066
21
-122.5482044
0
ENDSEC
0
EOF